<?xml version="1.0" encoding="UTF-8" standalone="no"?>
<svg
   xmlns:dc="http://purl.org/dc/elements/1.1/"
   xmlns:cc="http://creativecommons.org/ns#"
   xmlns:rdf="http://www.w3.org/1999/02/22-rdf-syntax-ns#"
   xmlns:svg="http://www.w3.org/2000/svg"
   xmlns="http://www.w3.org/2000/svg"
   id="svg8"
   version="1.1"
   viewBox="0 0 76.250028 93.912147"
   height="93.912148mm"
   width="76.250031mm">
  <defs
     id="defs2" />
  <metadata
     id="metadata5">
    <rdf:RDF>
      <cc:Work
         rdf:about="">
        <dc:format>image/svg+xml</dc:format>
        <dc:type
           rdf:resource="http://purl.org/dc/dcmitype/StillImage" />
        <dc:title></dc:title>
      </cc:Work>
    </rdf:RDF>
  </metadata>
  <g
     transform="translate(-200.18898,-100.36536)"
     id="layer2">
    <path
       id="path855"
       d="m 329.53415,145.31305 26.55281,-0.0945 v 70.58705 h 42.52236 l 0.18899,20.41071 -69.07517,0.0945 z"
       style="fill:#232223;fill-opacity:1;stroke:#232223;stroke-width:0.26458332px;stroke-linecap:butt;stroke-linejoin:miter;stroke-opacity:1" />
  </g>
  <g
     transform="translate(-200.18898,-100.36536)"
     id="layer6">
    <path
       id="path853"
       d="m 205.33892,100.49784 65.57886,0.0945 0.0945,16.72545 -18.61532,19.84375 c 0,0 7.7383,0.3654 13.63001,4.35286 5.07675,3.43589 10.41871,10.86068 10.27697,18.79818 -0.28347,15.875 -10.77372,34.13338 -43.27826,33.82887 -7.1324,-0.0668 -15.03969,-1.80395 -19.68389,-3.24563 -12.04989,-3.7406 -13.01105,-7.05422 -13.01105,-7.05422 l 10.11087,-19.56027 c 0,0 7.37053,8.50447 23.90698,7.9375 16.53646,-0.56696 17.10344,-6.23661 16.91445,-10.58333 -0.189,-4.34673 -3.87427,-7.84301 -8.1265,-7.84301 -4.25222,0 -17.48139,-0.0945 -17.48139,-0.0945 V 137.634 l 16.81994,-17.76488 -37.04167,0.0945 z"
       style="fill:#707070;fill-opacity:1;stroke:#707070;stroke-width:0.26458332px;stroke-linecap:butt;stroke-linejoin:miter;stroke-opacity:1" />
  </g>
  <g
     transform="translate(-200.18898,-100.36536)"
     id="layer5">
    <path
       id="path845"
       d="m 90.784898,195.98584 v 11.62255 l 65.767562,79.6587 21.35581,-0.0946 -0.0946,-11.90625 -64.25551,-79.28044 z m 87.123372,0 -25.56072,0.047 0.0946,16.20573 25.51369,31.27768 z m -87.028802,44.03401 c -0.0472,0.28348 0,47.24724 0,47.24724 H 116.6288 l -0.047,-15.875 c 0,0 -25.655062,-31.65573 -25.702312,-31.37224 z"
       style="fill:#b2b2b2;fill-opacity:1;stroke:#b2b2b2;stroke-width:0.26458332px;stroke-linecap:butt;stroke-linejoin:miter;stroke-opacity:1" />
  </g>
  <g
     transform="translate(-200.18898,-100.36536)"
     id="layer4">
    <path
       id="path828"
       d="M 132.68309,5.058601 C 107.65367,4.848072 80.996042,24.226196 81.149292,52.801948 c 0.18003,33.57284 30.284948,48.948722 50.970008,48.929822 17.22992,-0.0153 50.66979,-11.766582 50.93591,-47.926792 C 183.29382,21.383426 155.29768,5.248831 132.68309,5.058601 Z m -0.42168,23.594945 c 10.52024,0.10071 23.41191,8.64247 23.30091,25.806692 -0.1238,19.1435 -15.37242,25.01413 -23.38772,25.02225 -9.62264,0.01 -23.80317,-7.77975 -23.88692,-25.55348 -0.0713,-15.128222 12.33012,-25.386922 23.97373,-25.275462 z"
       style="fill:#fefefe;fill-opacity:1;stroke:#fefefe;stroke-width:0.26458332px;stroke-linecap:butt;stroke-linejoin:miter;stroke-opacity:1" />
  </g>
  <g
     transform="translate(-200.18898,-100.36536)"
     id="layer3">
    <path
       id="path826"
       d="M 1.1850843,116.35908 H 83.036376 l 0.06681,21.04748 -27.461943,-0.13364 -0.06682,70.49234 -26.593311,-0.13363 V 137.33974 H 1.1850823 Z"
       style="fill:#fefefe;fill-opacity:1;stroke:#fefefe;stroke-width:0.26458332px;stroke-linecap:butt;stroke-linejoin:miter;stroke-opacity:1" />
  </g>
</svg>
